<svg version="1.1" id="Layer_1" xmlns="http://www.w3.org/2000/svg" xmlns:xlink="http://www.w3.org/1999/xlink" x="0px" y="0px"
	 width="100%" viewBox="0 0 516 516" enable-background="new 0 0 516 516" xml:space="preserve">
<path fill="#FFFFFF" opacity="1.000000" stroke="none" 
	d="
M517.000000,186.000000 
	C517.000000,296.639984 517.000000,406.779999 517.000000,516.959961 
	C345.068329,516.959961 173.136673,516.959961 1.102500,516.959961 
	C1.102500,345.110046 1.102500,173.220001 1.102500,1.164981 
	C172.999863,1.164981 344.999908,1.164981 517.000000,1.164981 
	C517.000000,62.529972 517.000000,124.014984 517.000000,186.000000 
M144.499969,502.687805 
	C243.831177,502.687836 343.162384,502.690186 442.493591,502.672791 
	C444.649963,502.672424 446.845367,502.660217 448.953857,502.276306 
	C452.482941,501.633759 454.532745,499.302399 454.778259,495.740723 
	C455.012299,492.345734 453.876434,489.520386 450.404755,488.167969 
	C448.699707,487.503784 446.980469,486.875977 445.267487,486.232208 
	C430.550232,480.701172 420.976715,470.182770 418.364563,454.861267 
	C415.823120,439.954010 421.001068,426.807709 432.880066,417.232605 
	C437.805176,413.262695 444.019562,410.841675 449.774536,407.970673 
	C453.323364,406.200226 455.401428,403.722473 454.791779,399.720215 
	C454.150299,395.509033 451.319153,393.455414 447.180542,393.151917 
	C445.688110,393.042450 444.182312,393.106750 442.682617,393.106689 
	C388.684113,393.105164 334.685577,393.105408 280.687073,393.105408 
	C278.960632,393.105408 277.234192,393.105408 275.507751,393.105408 
	C276.289764,391.641724 277.200409,391.044464 278.162323,390.546143 
	C298.679565,379.917053 316.228119,365.653015 330.607086,347.554413 
	C359.431213,311.273895 371.315002,270.086731 365.944153,224.050385 
	C365.362274,219.062973 365.477295,214.829132 368.821991,210.694229 
	C371.067566,207.918121 372.427795,204.399338 374.040192,201.141602 
	C396.794189,155.168915 386.196930,98.714798 348.745972,64.409401 
	C344.669464,60.675312 340.415070,57.135464 334.880249,52.319592 
	C347.453033,50.354858 358.674957,48.601223 370.024231,46.827694 
	C370.024231,42.387829 370.024231,37.482563 370.024231,32.474064 
	C353.348633,32.376122 337.716400,35.532619 322.648193,41.904766 
	C320.400696,42.855198 317.083069,42.863007 314.816193,41.940872 
	C282.217590,28.680273 250.056534,29.397009 218.120499,44.185047 
	C216.477310,44.945927 214.024643,44.716724 212.182617,44.166248 
	C200.768967,40.755386 189.532654,36.688850 178.006927,33.741474 
	C172.208786,32.258759 165.925369,32.673752 159.758163,32.223038 
	C159.758163,37.846233 159.758163,42.714256 159.758163,47.835457 
	C173.563019,47.755848 186.556229,49.713562 199.440659,55.479702 
	C173.590439,75.627136 157.608795,101.128174 152.941528,133.296204 
	C148.232407,165.752731 156.115448,195.097885 175.613022,221.169937 
	C192.006149,243.090759 213.921936,257.492065 240.506638,263.752472 
	C282.395172,273.616760 319.227905,262.866272 351.131409,233.776474 
	C359.105988,314.764618 292.028900,389.471283 213.386871,392.680664 
	C230.591003,379.383545 244.705750,364.340820 255.581329,346.453217 
	C266.439758,328.593842 273.966614,309.459991 277.506256,288.487762 
	C274.767639,287.955231 272.360413,287.435547 269.934082,287.029968 
	C267.558380,286.632843 265.163239,286.351959 262.655792,286.003235 
	C262.299835,287.716919 262.085602,288.845795 261.829987,289.965149 
	C251.616013,334.690399 227.057968,368.832336 186.871384,391.389496 
	C185.580200,392.114288 183.866058,392.275909 182.332535,392.347992 
	C171.776398,392.843964 165.816956,387.648041 163.925995,377.388397 
	C163.629898,375.781891 162.776169,374.286163 162.289474,372.705627 
	C149.620575,331.563324 153.430527,291.953552 173.356857,253.841187 
	C175.228958,250.260452 179.266434,245.721863 178.271500,243.246704 
	C176.946564,239.950531 171.678329,238.231339 168.082031,235.868225 
	C167.703598,235.619537 167.177246,235.595993 166.457199,235.394653 
	C137.611771,282.109344 132.079239,331.466156 148.591965,384.405426 
	C138.815887,379.447906 129.039810,374.490387 119.011574,369.405029 
	C116.432251,373.279449 113.725121,377.345825 110.773537,381.779419 
	C117.254044,385.460327 123.366356,388.932098 130.713760,393.105408 
	C119.240685,393.105408 109.160797,393.170197 99.082123,393.086823 
	C89.419754,393.006897 80.365799,395.051025 71.695213,399.476257 
	C50.795551,410.142883 39.157642,433.554779 43.123280,457.605530 
	C46.863804,480.291046 66.642563,500.049438 89.560883,501.844604 
	C107.452797,503.246094 125.513985,502.486603 144.499969,502.687805 
z"/>
<path fill="#EF8E40" opacity="1.000000" stroke="none" 
	d="
M143.999969,502.687592 
	C125.513985,502.486603 107.452797,503.246094 89.560883,501.844604 
	C66.642563,500.049438 46.863804,480.291046 43.123280,457.605530 
	C39.157642,433.554779 50.795551,410.142883 71.695213,399.476257 
	C80.365799,395.051025 89.419754,393.006897 99.082123,393.086823 
	C109.160797,393.170197 119.240685,393.105408 130.713760,393.105408 
	C123.366356,388.932098 117.254044,385.460327 110.773537,381.779419 
	C113.725121,377.345825 116.432251,373.279449 119.011574,369.405029 
	C129.039810,374.490387 138.815887,379.447906 148.591965,384.405426 
	C132.079239,331.466156 137.611771,282.109344 166.457199,235.394653 
	C167.177246,235.595993 167.703598,235.619537 168.082031,235.868225 
	C171.678329,238.231339 176.946564,239.950531 178.271500,243.246704 
	C179.266434,245.721863 175.228958,250.260452 173.356857,253.841187 
	C153.430527,291.953552 149.620575,331.563324 162.289474,372.705627 
	C162.776169,374.286163 163.629898,375.781891 163.925995,377.388397 
	C165.816956,387.648041 171.776398,392.843964 182.332535,392.347992 
	C183.866058,392.275909 185.580200,392.114288 186.871384,391.389496 
	C227.057968,368.832336 251.616013,334.690399 261.829987,289.965149 
	C262.085602,288.845795 262.299835,287.716919 262.655792,286.003235 
	C265.163239,286.351959 267.558380,286.632843 269.934082,287.029968 
	C272.360413,287.435547 274.767639,287.955231 277.506256,288.487762 
	C273.966614,309.459991 266.439758,328.593842 255.581329,346.453217 
	C244.705750,364.340820 230.591003,379.383545 213.386871,392.680664 
	C292.028900,389.471283 359.105988,314.764618 351.131409,233.776474 
	C319.227905,262.866272 282.395172,273.616760 240.506638,263.752472 
	C213.921936,257.492065 192.006149,243.090759 175.613022,221.169937 
	C156.115448,195.097885 148.232407,165.752731 152.941528,133.296204 
	C157.608795,101.128174 173.590439,75.627136 199.440659,55.479702 
	C186.556229,49.713562 173.563019,47.755848 159.758163,47.835457 
	C159.758163,42.714256 159.758163,37.846233 159.758163,32.223038 
	C165.925369,32.673752 172.208786,32.258759 178.006927,33.741474 
	C189.532654,36.688850 200.768967,40.755386 212.182617,44.166248 
	C214.024643,44.716724 216.477310,44.945927 218.120499,44.185047 
	C250.056534,29.397009 282.217590,28.680273 314.816193,41.940872 
	C317.083069,42.863007 320.400696,42.855198 322.648193,41.904766 
	C337.716400,35.532619 353.348633,32.376122 370.024231,32.474064 
	C370.024231,37.482563 370.024231,42.387829 370.024231,46.827694 
	C358.674957,48.601223 347.453033,50.354858 334.880249,52.319592 
	C340.415070,57.135464 344.669464,60.675312 348.745972,64.409401 
	C386.196930,98.714798 396.794189,155.168915 374.040192,201.141602 
	C372.427795,204.399338 371.067566,207.918121 368.821991,210.694229 
	C365.477295,214.829132 365.362274,219.062973 365.944153,224.050385 
	C371.315002,270.086731 359.431213,311.273895 330.607086,347.554413 
	C316.228119,365.653015 298.679565,379.917053 278.162323,390.546143 
	C277.200409,391.044464 276.289764,391.641724 275.507751,393.105408 
	C277.234192,393.105408 278.960632,393.105408 280.687073,393.105408 
	C334.685577,393.105408 388.684113,393.105164 442.682617,393.106689 
	C444.182312,393.106750 445.688110,393.042450 447.180542,393.151917 
	C451.319153,393.455414 454.150299,395.509033 454.791779,399.720215 
	C455.401428,403.722473 453.323364,406.200226 449.774536,407.970673 
	C444.019562,410.841675 437.805176,413.262695 432.880066,417.232605 
	C421.001068,426.807709 415.823120,439.954010 418.364563,454.861267 
	C420.976715,470.182770 430.550232,480.701172 445.267487,486.232208 
	C446.980469,486.875977 448.699707,487.503784 450.404755,488.167969 
	C453.876434,489.520386 455.012299,492.345734 454.778259,495.740723 
	C454.532745,499.302399 452.482941,501.633759 448.953857,502.276306 
	C446.845367,502.660217 444.649963,502.672424 442.493591,502.672791 
	C343.162384,502.690186 243.831177,502.687836 143.999969,502.687592 
M274.949249,122.637718 
	C274.300079,127.405991 273.178986,132.165176 273.086914,136.944183 
	C272.762848,153.767227 272.769043,170.596970 272.695709,187.424377 
	C272.650177,197.871002 272.685944,197.698395 261.978027,197.779175 
	C258.143799,197.808090 257.196747,196.521133 257.238556,192.877045 
	C257.414459,177.547165 257.224915,162.213501 257.330719,146.882339 
	C257.560394,113.609062 245.150116,86.512871 218.489838,66.146233 
	C215.684784,64.003349 213.884979,64.070213 211.187531,66.025314 
	C183.211761,86.302132 168.031769,113.759956 167.379166,148.168228 
	C166.733322,182.219833 180.311829,210.782471 207.623947,231.054916 
	C240.316132,255.320709 276.394226,259.056305 313.451355,241.582260 
	C351.375641,223.699326 373.659821,183.792892 370.224579,141.700226 
	C367.485352,108.136398 351.159515,82.514122 323.550720,63.716721 
	C320.582825,61.696045 318.226654,61.624702 315.041626,63.774624 
	C294.085327,77.920219 280.930206,97.331657 274.949249,122.637718 
M371.500000,408.171783 
	C317.034180,408.451599 262.568542,408.889984 208.102478,408.952515 
	C174.799820,408.990723 141.496735,408.415802 108.193253,408.209198 
	C103.049904,408.177338 97.888290,408.470184 92.761047,408.913025 
	C68.961037,410.968475 52.433022,434.663879 58.658016,457.683289 
	C63.671295,476.221832 78.737282,487.302185 99.123581,487.305603 
	C203.764984,487.323181 308.406403,487.315033 413.047791,487.301422 
	C414.600769,487.301239 416.153748,487.116272 418.179993,486.987396 
	C415.783020,483.819000 413.494720,481.374512 411.909821,478.537140 
	C410.301483,475.657837 408.293091,474.917664 405.120300,474.936310 
	C381.626770,475.074585 358.132080,475.011230 334.637756,475.011230 
	C332.870392,475.011230 331.103058,475.011230 329.373535,475.011230 
	C329.373535,469.641449 329.373535,464.925262 329.373535,459.937469 
	C354.220154,459.937469 378.683807,459.937469 403.276031,459.937469 
	C402.825592,454.920624 402.401459,450.196747 401.925018,444.890381 
	C348.784363,444.890381 295.731323,444.890381 242.107010,444.890381 
	C242.107010,441.193359 242.425766,438.031891 242.033890,434.961151 
	C241.412933,430.095428 243.568649,429.209351 247.956390,429.228088 
	C283.613800,429.380585 319.272156,429.313843 354.930206,429.313843 
	C370.426453,429.313843 385.923004,429.355194 401.418579,429.252594 
	C403.051453,429.241760 405.467529,428.905945 406.178711,427.832275 
	C410.346497,421.539886 414.115234,414.983246 418.226074,408.171967 
	C403.009064,408.171967 387.754547,408.171967 371.500000,408.171783 
M247.943924,73.539436 
	C253.801270,82.634041 259.658600,91.728638 265.588776,100.936295 
	C273.015503,82.091507 285.966553,66.944191 302.228088,53.576111 
	C277.261444,45.339863 253.813919,46.079769 229.944275,55.677349 
	C235.992447,61.617714 241.764679,67.287041 247.943924,73.539436 
z"/>
<path fill="#FFFFFF" opacity="1.000000" stroke="none" 
	d="
M274.985718,122.218102 
	C280.930206,97.331657 294.085327,77.920219 315.041626,63.774624 
	C318.226654,61.624702 320.582825,61.696045 323.550720,63.716721 
	C351.159515,82.514122 367.485352,108.136398 370.224579,141.700226 
	C373.659821,183.792892 351.375641,223.699326 313.451355,241.582260 
	C276.394226,259.056305 240.316132,255.320709 207.623947,231.054916 
	C180.311829,210.782471 166.733322,182.219833 167.379166,148.168228 
	C168.031769,113.759956 183.211761,86.302132 211.187531,66.025314 
	C213.884979,64.070213 215.684784,64.003349 218.489838,66.146233 
	C245.150116,86.512871 257.560394,113.609062 257.330719,146.882339 
	C257.224915,162.213501 257.414459,177.547165 257.238556,192.877045 
	C257.196747,196.521133 258.143799,197.808090 261.978027,197.779175 
	C272.685944,197.698395 272.650177,197.871002 272.695709,187.424377 
	C272.769043,170.596970 272.762848,153.767227 273.086914,136.944183 
	C273.178986,132.165176 274.300079,127.405991 274.985718,122.218102 
M338.896667,128.359619 
	C338.896667,125.415092 338.896667,122.470558 338.896667,119.587517 
	C322.929047,117.912201 305.925262,135.320099 308.950592,150.014206 
	C311.196350,150.014206 313.502686,150.014206 315.808990,150.014206 
	C318.235687,150.014206 320.662384,150.014206 322.916779,150.014206 
	C325.581787,139.602203 326.979187,138.192108 338.896545,133.599060 
	C338.896545,132.233170 338.896545,130.755310 338.896667,128.359619 
M211.154556,123.227806 
	C206.421967,120.988472 201.729996,118.570641 195.836960,119.572090 
	C195.836960,123.782570 195.703461,127.751099 195.930313,131.698914 
	C195.987427,132.692596 197.065796,134.310699 197.900009,134.471161 
	C206.408951,136.107788 210.449478,141.674789 211.541229,149.641418 
	C216.593994,149.641418 221.311493,149.641418 226.219116,149.641418 
	C226.192307,137.989563 220.843109,129.774841 211.154556,123.227806 
z"/>
<path fill="#FFFFFE" opacity="1.000000" stroke="none" 
	d="
M372.000000,408.171875 
	C387.754547,408.171967 403.009064,408.171967 418.226074,408.171967 
	C414.115234,414.983246 410.346497,421.539886 406.178711,427.832275 
	C405.467529,428.905945 403.051453,429.241760 401.418579,429.252594 
	C385.923004,429.355194 370.426453,429.313843 354.930206,429.313843 
	C319.272156,429.313843 283.613800,429.380585 247.956390,429.228088 
	C243.568649,429.209351 241.412933,430.095428 242.033890,434.961151 
	C242.425766,438.031891 242.107010,441.193359 242.107010,444.890381 
	C295.731323,444.890381 348.784363,444.890381 401.925018,444.890381 
	C402.401459,450.196747 402.825592,454.920624 403.276031,459.937469 
	C378.683807,459.937469 354.220154,459.937469 329.373535,459.937469 
	C329.373535,464.925262 329.373535,469.641449 329.373535,475.011230 
	C331.103058,475.011230 332.870392,475.011230 334.637756,475.011230 
	C358.132080,475.011230 381.626770,475.074585 405.120300,474.936310 
	C408.293091,474.917664 410.301483,475.657837 411.909821,478.537140 
	C413.494720,481.374512 415.783020,483.819000 418.179993,486.987396 
	C416.153748,487.116272 414.600769,487.301239 413.047791,487.301422 
	C308.406403,487.315033 203.764984,487.323181 99.123581,487.305603 
	C78.737282,487.302185 63.671295,476.221832 58.658016,457.683289 
	C52.433022,434.663879 68.961037,410.968475 92.761047,408.913025 
	C97.888290,408.470184 103.049904,408.177338 108.193253,408.209198 
	C141.496735,408.415802 174.799820,408.990723 208.102478,408.952515 
	C262.568542,408.889984 317.034180,408.451599 372.000000,408.171875 
z"/>
<path fill="#FFFEFE" opacity="1.000000" stroke="none" 
	d="
M247.740417,73.247902 
	C241.764679,67.287041 235.992447,61.617714 229.944275,55.677349 
	C253.813919,46.079769 277.261444,45.339863 302.228088,53.576111 
	C285.966553,66.944191 273.015503,82.091507 265.588776,100.936295 
	C259.658600,91.728638 253.801270,82.634041 247.740417,73.247902 
z"/>
<path fill="#EF8F41" opacity="1.000000" stroke="none" 
	d="
M338.896606,128.818527 
	C338.896545,130.755310 338.896545,132.233170 338.896545,133.599060 
	C326.979187,138.192108 325.581787,139.602203 322.916779,150.014206 
	C320.662384,150.014206 318.235687,150.014206 315.808990,150.014206 
	C313.502686,150.014206 311.196350,150.014206 308.950592,150.014206 
	C305.925262,135.320099 322.929047,117.912201 338.896667,119.587517 
	C338.896667,122.470558 338.896667,125.415092 338.896606,128.818527 
z"/>
<path fill="#EF8E40" opacity="1.000000" stroke="none" 
	d="
M211.467682,123.423950 
	C220.843109,129.774841 226.192307,137.989563 226.219116,149.641418 
	C221.311493,149.641418 216.593994,149.641418 211.541229,149.641418 
	C210.449478,141.674789 206.408951,136.107788 197.900009,134.471161 
	C197.065796,134.310699 195.987427,132.692596 195.930313,131.698914 
	C195.703461,127.751099 195.836960,123.782570 195.836960,119.572090 
	C201.729996,118.570641 206.421967,120.988472 211.467682,123.423950 
z"/>
</svg>